REM DIRINDEX 1\2\4,1\2\5,1\2\6,1\3\7,1\3\8
REM DIRNAME cjc128,folder01,folder02,folder03,folder04,folder05,folder06,folder07
TITLE ""
FILE "004_Lesson 03_Output_Stage.mp3" MP3
  TRACK 01 AUDIO
    TITLE "0:"
    INDEX 01 00:00:00
  TRACK 02 AUDIO
    TITLE "6:cjc128_0131"
    INDEX 01 00:00:11
  TRACK 03 AUDIO
    TITLE "0:"
    INDEX 01 00:02:71
  TRACK 04 AUDIO
    TITLE "6:cjc128_0132"
    INDEX 01 00:03:04
  TRACK 05 AUDIO
    TITLE "0:"
    INDEX 01 00:04:27
  TRACK 06 AUDIO
    TITLE "4:cjc128_0133"
    INDEX 01 00:05:16
  TRACK 07 AUDIO
    TITLE "0:"
    INDEX 01 00:07:35
  TRACK 08 AUDIO
    TITLE "5:cjc128_0134"
    INDEX 01 00:10:12
  TRACK 09 AUDIO
    TITLE "0:"
    INDEX 01 00:11:56
  TRACK 10 AUDIO
    TITLE "6:cjc128_0135"
    INDEX 01 00:12:50
  TRACK 11 AUDIO
    TITLE "0:"
    INDEX 01 00:14:00
  TRACK 12 AUDIO
    TITLE "4:cjc128_0136"
    INDEX 01 00:14:64
  TRACK 13 AUDIO
    TITLE "0:"
    INDEX 01 00:17:00
  TRACK 14 AUDIO
    TITLE "5:cjc128_0137"
    INDEX 01 00:19:50
  TRACK 15 AUDIO
    TITLE "0:"
    INDEX 01 00:21:41
  TRACK 16 AUDIO
    TITLE "6:cjc128_0138"
    INDEX 01 00:22:19
  TRACK 17 AUDIO
    TITLE "0:"
    INDEX 01 00:23:51
  TRACK 18 AUDIO
    TITLE "4:cjc128_0139"
    INDEX 01 00:24:33
  TRACK 19 AUDIO
    TITLE "0:"
    INDEX 01 00:26:30
  TRACK 20 AUDIO
    TITLE "5:cjc128_0140"
    INDEX 01 00:28:49
  TRACK 21 AUDIO
    TITLE "0:"
    INDEX 01 00:30:32
  TRACK 22 AUDIO
    TITLE "6:cjc128_0141"
    INDEX 01 00:31:06
  TRACK 23 AUDIO
    TITLE "0:"
    INDEX 01 00:32:35
  TRACK 24 AUDIO
    TITLE "4:cjc128_0142"
    INDEX 01 00:33:15
  TRACK 25 AUDIO
    TITLE "0:"
    INDEX 01 00:36:15
  TRACK 26 AUDIO
    TITLE "5:cjc128_0143"
    INDEX 01 00:38:39
  TRACK 27 AUDIO
    TITLE "0:"
    INDEX 01 00:40:15
  TRACK 28 AUDIO
    TITLE "6:cjc128_0144"
    INDEX 01 00:40:66
  TRACK 29 AUDIO
    TITLE "0:"
    INDEX 01 00:42:21
  TRACK 30 AUDIO
    TITLE "4:cjc128_0145"
    INDEX 01 00:43:09
  TRACK 31 AUDIO
    TITLE "0:"
    INDEX 01 00:47:09
  TRACK 32 AUDIO
    TITLE "5:cjc128_0146"
    INDEX 01 00:51:11
  TRACK 33 AUDIO
    TITLE "0:"
    INDEX 01 00:54:50
  TRACK 34 AUDIO
    TITLE "6:cjc128_0147"
    INDEX 01 00:55:24
  TRACK 35 AUDIO
    TITLE "0:"
    INDEX 01 00:56:41
  TRACK 36 AUDIO
    TITLE "4:cjc128_0148"
    INDEX 01 00:57:27
  TRACK 37 AUDIO
    TITLE "0:"
    INDEX 01 01:00:06
  TRACK 38 AUDIO
    TITLE "5:cjc128_0149"
    INDEX 01 01:03:00
  TRACK 39 AUDIO
    TITLE "0:"
    INDEX 01 01:05:17
  TRACK 40 AUDIO
    TITLE "6:cjc128_0150"
    INDEX 01 01:05:73
  TRACK 41 AUDIO
    TITLE "0:"
    INDEX 01 01:07:23
  TRACK 42 AUDIO
    TITLE "4:cjc128_0151"
    INDEX 01 01:08:03
  TRACK 43 AUDIO
    TITLE "0:"
    INDEX 01 01:10:31
  TRACK 44 AUDIO
    TITLE "5:cjc128_0152"
    INDEX 01 01:13:38
  TRACK 45 AUDIO
    TITLE "0:"
    INDEX 01 01:15:60
  TRACK 46 AUDIO
    TITLE "6:cjc128_0153"
    INDEX 01 01:16:44
  TRACK 47 AUDIO
    TITLE "0:"
    INDEX 01 01:17:47
  TRACK 48 AUDIO
    TITLE "4:cjc128_0154"
    INDEX 01 01:18:39
  TRACK 49 AUDIO
    TITLE "0:"
    INDEX 01 01:21:02
  TRACK 50 AUDIO
    TITLE "5:cjc128_0155"
    INDEX 01 01:23:63
  TRACK 51 AUDIO
    TITLE "0:"
    INDEX 01 01:26:05
  TRACK 52 AUDIO
    TITLE "6:cjc128_0156"
    INDEX 01 01:26:54
  TRACK 53 AUDIO
    TITLE "0:"
    INDEX 01 01:28:06
  TRACK 54 AUDIO
    TITLE "4:cjc128_0157"
    INDEX 01 01:28:65
  TRACK 55 AUDIO
    TITLE "0:"
    INDEX 01 01:31:20
  TRACK 56 AUDIO
    TITLE "5:cjc128_0158"
    INDEX 01 01:33:72
  TRACK 57 AUDIO
    TITLE "0:"
    INDEX 01 01:36:05
  TRACK 58 AUDIO
    TITLE "6:cjc128_0159"
    INDEX 01 01:36:58
  TRACK 59 AUDIO
    TITLE "0:"
    INDEX 01 01:38:08
  TRACK 60 AUDIO
    TITLE "4:cjc128_0160"
    INDEX 01 01:38:69
  TRACK 61 AUDIO
    TITLE "0:"
    INDEX 01 01:41:44
  TRACK 62 AUDIO
    TITLE "5:cjc128_0161"
    INDEX 01 01:44:54
  TRACK 63 AUDIO
    TITLE "0:"
    INDEX 01 01:47:17
  TRACK 64 AUDIO
    TITLE "6:cjc128_0162"
    INDEX 01 01:47:72
  TRACK 65 AUDIO
    TITLE "0:"
    INDEX 01 01:49:26
  TRACK 66 AUDIO
    TITLE "4:cjc128_0163"
    INDEX 01 01:50:15
  TRACK 67 AUDIO
    TITLE "0:"
    INDEX 01 01:52:20
  TRACK 68 AUDIO
    TITLE "5:cjc128_0164"
    INDEX 01 01:54:39
  TRACK 69 AUDIO
    TITLE "0:"
    INDEX 01 01:56:08
  TRACK 70 AUDIO
    TITLE "6:cjc128_0165"
    INDEX 01 01:56:69
  TRACK 71 AUDIO
    TITLE "0:"
    INDEX 01 01:58:21
  TRACK 72 AUDIO
    TITLE "4:cjc128_0166"
    INDEX 01 01:59:06
  TRACK 73 AUDIO
    TITLE "0:"
    INDEX 01 02:01:50
  TRACK 74 AUDIO
    TITLE "5:cjc128_0167"
    INDEX 01 02:04:13
  TRACK 75 AUDIO
    TITLE "0:"
    INDEX 01 02:06:06
  TRACK 76 AUDIO
    TITLE "6:cjc128_0168"
    INDEX 01 02:06:55
  TRACK 77 AUDIO
    TITLE "0:"
    INDEX 01 02:08:15
  TRACK 78 AUDIO
    TITLE "4:cjc128_0169"
    INDEX 01 02:09:07
  TRACK 79 AUDIO
    TITLE "0:"
    INDEX 01 02:11:23
  TRACK 80 AUDIO
    TITLE "5:cjc128_0170"
    INDEX 01 02:13:57
  TRACK 81 AUDIO
    TITLE "0:"
    INDEX 01 02:15:45
  TRACK 82 AUDIO
    TITLE "6:cjc128_0171"
    INDEX 01 02:16:26
  TRACK 83 AUDIO
    TITLE "0:"
    INDEX 01 02:17:59
  TRACK 84 AUDIO
    TITLE "4:cjc128_0172"
    INDEX 01 02:18:53
  TRACK 85 AUDIO
    TITLE "0:"
    INDEX 01 02:20:69
  TRACK 86 AUDIO
    TITLE "5:cjc128_0173"
    INDEX 01 02:23:17
  TRACK 87 AUDIO
    TITLE "0:"
    INDEX 01 02:24:71
  TRACK 88 AUDIO
    TITLE "6:cjc128_0174"
    INDEX 01 02:25:51
  TRACK 89 AUDIO
    TITLE "0:"
    INDEX 01 02:27:05
  TRACK 90 AUDIO
    TITLE "4:cjc128_0175"
    INDEX 01 02:27:65
  TRACK 91 AUDIO
    TITLE "0:"
    INDEX 01 02:30:03
  TRACK 92 AUDIO
    TITLE "5:cjc128_0176"
    INDEX 01 02:32:59
  TRACK 93 AUDIO
    TITLE "0:"
    INDEX 01 02:34:67
  TRACK 94 AUDIO
    TITLE "6:cjc128_0177"
    INDEX 01 02:35:53
  TRACK 95 AUDIO
    TITLE "0:"
    INDEX 01 02:36:74
  TRACK 96 AUDIO
    TITLE "4:cjc128_0178"
    INDEX 01 02:37:62
  TRACK 97 AUDIO
    TITLE "0:"
    INDEX 01 02:40:00
  TRACK 98 AUDIO
    TITLE "5:cjc128_0179"
    INDEX 01 02:42:53
  TRACK 99 AUDIO
    TITLE "0:"
    INDEX 01 02:44:68
  TRACK 100 AUDIO
    TITLE "6:cjc128_0180"
    INDEX 01 02:45:48
  TRACK 101 AUDIO
    TITLE "0:"
    INDEX 01 02:47:03
  TRACK 102 AUDIO
    TITLE "4:cjc128_0181"
    INDEX 01 02:47:64
  TRACK 103 AUDIO
    TITLE "0:"
    INDEX 01 02:49:12
  TRACK 104 AUDIO
    TITLE "5:cjc128_0182"
    INDEX 01 02:51:17
  TRACK 105 AUDIO
    TITLE "0:"
    INDEX 01 02:52:32
  TRACK 106 AUDIO
    TITLE "6:cjc128_0183"
    INDEX 01 02:53:16
  TRACK 107 AUDIO
    TITLE "0:"
    INDEX 01 02:54:23
  TRACK 108 AUDIO
    TITLE "4:cjc128_0184"
    INDEX 01 02:55:07
  TRACK 109 AUDIO
    TITLE "0:"
    INDEX 01 02:56:36
  TRACK 110 AUDIO
    TITLE "5:cjc128_0185"
    INDEX 01 02:58:42
  TRACK 111 AUDIO
    TITLE "0:"
    INDEX 01 02:59:71
  TRACK 112 AUDIO
    TITLE "6:cjc128_0186"
    INDEX 01 03:00:59
  TRACK 113 AUDIO
    TITLE "0:"
    INDEX 01 03:02:11
  TRACK 114 AUDIO
    TITLE "4:cjc128_0187"
    INDEX 01 03:02:70
  TRACK 115 AUDIO
    TITLE "0:"
    INDEX 01 03:04:57
  TRACK 116 AUDIO
    TITLE "5:cjc128_0188"
    INDEX 01 03:06:64
  TRACK 117 AUDIO
    TITLE "0:"
    INDEX 01 03:08:23
  TRACK 118 AUDIO
    TITLE "6:cjc128_0189"
    INDEX 01 03:09:05
  TRACK 119 AUDIO
    TITLE "0:"
    INDEX 01 03:10:36
  TRACK 120 AUDIO
    TITLE "4:cjc128_0190"
    INDEX 01 03:11:24
  TRACK 121 AUDIO
    TITLE "0:"
    INDEX 01 03:14:65
  TRACK 122 AUDIO
    TITLE "5:cjc128_0191"
    INDEX 01 03:18:12
  TRACK 123 AUDIO
    TITLE "0:"
    INDEX 01 03:20:62
  TRACK 124 AUDIO
    TITLE "6:cjc128_0192"
    INDEX 01 03:21:40
  TRACK 125 AUDIO
    TITLE "0:"
    INDEX 01 03:22:72
  TRACK 126 AUDIO
    TITLE "4:cjc128_0193"
    INDEX 01 03:23:58
  TRACK 127 AUDIO
    TITLE "0:"
    INDEX 01 03:26:15
  TRACK 128 AUDIO
    TITLE "5:cjc128_0194"
    INDEX 01 03:28:51
  TRACK 129 AUDIO
    TITLE "0:"
    INDEX 01 03:30:39
  TRACK 130 AUDIO
    TITLE "6:cjc128_0195"
    INDEX 01 03:31:16
  TRACK 131 AUDIO
    TITLE "0:"
    INDEX 01 03:32:47
  TRACK 132 AUDIO
    TITLE "4:cjc128_0196"
    INDEX 01 03:33:35
  TRACK 133 AUDIO
    TITLE "0:"
    INDEX 01 03:35:59
  TRACK 134 AUDIO
    TITLE "5:cjc128_0197"
    INDEX 01 03:38:34
  TRACK 135 AUDIO
    TITLE "0:"
    INDEX 01 03:40:41
  TRACK 136 AUDIO
    TITLE "6:cjc128_0198"
    INDEX 01 03:41:23
  TRACK 137 AUDIO
    TITLE "0:"
    INDEX 01 03:42:59
  TRACK 138 AUDIO
    TITLE "4:cjc128_0199"
    INDEX 01 03:43:41
  TRACK 139 AUDIO
    TITLE "0:"
    INDEX 01 03:46:53
  TRACK 140 AUDIO
    TITLE "5:cjc128_0200"
    INDEX 01 03:49:69
  TRACK 141 AUDIO
    TITLE "0:"
    INDEX 01 03:52:38
  TRACK 142 AUDIO
    TITLE "6:cjc128_0201"
    INDEX 01 03:53:22
  TRACK 143 AUDIO
    TITLE "0:"
    INDEX 01 03:54:53
  TRACK 144 AUDIO
    TITLE "4:cjc128_0202"
    INDEX 01 03:55:33
  TRACK 145 AUDIO
    TITLE "0:"
    INDEX 01 03:58:68
  TRACK 146 AUDIO
    TITLE "5:cjc128_0203"
    INDEX 01 04:03:03
  TRACK 147 AUDIO
    TITLE "0:"
    INDEX 01 04:06:32
